<svg width="84" height="84" viewBox="0 0 42 42" fill="none" xmlns="http://www.w3.org/2000/svg">
<circle cx="21" cy="21" r="21" fill="#fff"/>
<path d="M30.9845 17C30.2086 17.0194 29.4417 16.8294 28.7645 16.45C28.2237 16.1396 27.6079 15.9839 26.9845 16V15C27.7605 14.9806 28.5274 15.1706 29.2045 15.55C29.7454 15.8604 30.3612 16.0161 30.9845 16V17ZM30.9845 14C30.3612 14.0161 29.7454 13.8604 29.2045 13.55C28.5274 13.1706 27.7605 12.9806 26.9845 13V14C27.6079 13.9839 28.2237 14.1396 28.7645 14.45C29.4417 14.8294 30.2086 15.0194 30.9845 15V14ZM30.9845 18C30.3612 18.0161 29.7454 17.8604 29.2045 17.55C28.5274 17.1706 27.7605 16.9806 26.9845 17V18C27.6079 17.9839 28.2237 18.1396 28.7645 18.45C29.4417 18.8294 30.2086 19.0194 30.9845 19V18ZM18.9845 20.73C21.3459 20.2733 23.6823 19.6959 25.9845 19V12C25.9845 12 19.4845 10 16.4845 10C15.149 10.0038 13.8605 10.4933 12.8595 11.3773C11.8584 12.2613 11.2132 13.4794 11.0442 14.8041C10.8752 16.1289 11.1941 17.4699 11.9412 18.5769C12.6883 19.6838 13.8127 20.4811 15.1045 20.82L15.9845 27H16.9845C17.0245 27.4766 17.1779 27.9368 17.4319 28.3421C17.6858 28.7474 18.0331 29.0861 18.4445 29.33C18.9085 29.6058 19.2937 29.9962 19.5634 30.4638C19.8331 30.9313 19.9781 31.4603 19.9845 32H20.9845C20.98 31.3111 20.8028 30.6344 20.4691 30.0316C20.1354 29.4289 19.656 28.9195 19.0745 28.55C18.3745 28 17.9845 27.63 17.9845 27H18.9845V20.73ZM16.4845 18C15.9901 18 15.5067 17.8534 15.0956 17.5787C14.6845 17.304 14.3641 16.9135 14.1748 16.4567C13.9856 15.9999 13.9361 15.4972 14.0326 15.0123C14.129 14.5273 14.3671 14.0819 14.7168 13.7322C15.0664 13.3826 15.5119 13.1445 15.9968 13.048C16.4818 12.9516 16.9844 13.0011 17.4412 13.1903C17.8981 13.3795 18.2885 13.7 18.5632 14.1111C18.8379 14.5222 18.9845 15.0055 18.9845 15.5C18.9845 16.163 18.7211 16.7989 18.2523 17.2678C17.7835 17.7366 17.1476 18 16.4845 18Z" fill="#4E127D"/>
</svg>
