<svg width="84" height="84" viewBox="0 0 42 42" fill="none" xmlns="http://www.w3.org/2000/svg">
<circle cx="21" cy="21" r="21" fill="#fff"/>
<path d="M27.5 11L26.41 13.41L24 14.5L26.41 15.59L27.5 18L28.6 15.59L31 14.5L28.6 13.41L27.5 11ZM20 12C14.5 12 10 16.5 10 22V32H30V22C30 20.53 29.67 19.13 29.1 17.87L27.86 20.59C27.94 21.05 28 21.5 28 22C28 26.43 24.43 30 20 30C15.57 30 12 26.43 12 22V21.87C13.2876 21.3877 14.4619 20.6449 15.4495 19.6883C16.4372 18.7316 17.2169 17.5816 17.74 16.31C18.6779 17.4631 19.8611 18.3927 21.2035 19.031C22.5458 19.6693 24.0136 20.0003 25.5 20C25.9448 19.9996 26.3892 19.9695 26.83 19.91L25.35 16.65L20.6 14.5L24.13 12.9C22.87 12.33 21.47 12 20 12ZM17 21.75C16.6685 21.75 16.3505 21.8817 16.1161 22.1161C15.8817 22.3505 15.75 22.6685 15.75 23C15.75 23.3315 15.8817 23.6495 16.1161 23.8839C16.3505 24.1183 16.6685 24.25 17 24.25C17.1642 24.25 17.3267 24.2177 17.4784 24.1548C17.63 24.092 17.7678 24 17.8839 23.8839C18 23.7678 18.092 23.63 18.1548 23.4784C18.2177 23.3267 18.25 23.1642 18.25 23C18.25 22.8358 18.2177 22.6733 18.1548 22.5216C18.092 22.37 18 22.2322 17.8839 22.1161C17.7678 22 17.63 21.908 17.4784 21.8452C17.3267 21.7823 17.1642 21.75 17 21.75ZM23 21.75C22.6685 21.75 22.3505 21.8817 22.1161 22.1161C21.8817 22.3505 21.75 22.6685 21.75 23C21.75 23.3315 21.8817 23.6495 22.1161 23.8839C22.3505 24.1183 22.6685 24.25 23 24.25C23.3315 24.25 23.6495 24.1183 23.8839 23.8839C24.1183 23.6495 24.25 23.3315 24.25 23C24.25 22.6685 24.1183 22.3505 23.8839 22.1161C23.6495 21.8817 23.3315 21.75 23 21.75Z" fill="#4E127D"/>
</svg>
