<svg width="84" height="84" viewBox="0 0 42 42" fill="none" xmlns="http://www.w3.org/2000/svg">
<circle cx="21" cy="21" r="21" fill="#fff"/>
<path d="M23.5 15.5C23.5 14.66 25 13 25 13C25 13 26.5 14.66 26.5 15.5C26.5 16.33 25.83 17 25 17C24.17 17 23.5 16.33 23.5 15.5ZM27.5 24C28.163 24 28.7989 23.7366 29.2678 23.2678C29.7366 22.7989 30 22.163 30 21.5C30 19.83 27.5 17 27.5 17C27.5 17 25 19.83 25 21.5C25 22.163 25.2634 22.7989 25.7322 23.2678C26.2011 23.7366 26.837 24 27.5 24ZM24 21V31H12V21C12 18.03 14.16 15.57 17 15.09V13H15V11H21C22.13 11 23.15 11.39 24 12L22.56 13.44C22.1 13.17 21.57 13 21 13H19V15.09C21.84 15.57 24 18.03 24 21Z" fill="#4E127D"/>
</svg>
